<?xml version="1.0" standalone="no"?>
<!DOCTYPE svg PUBLIC "-//W3C//DTD SVG 20010904//EN"
 "http://www.w3.org/TR/2001/REC-SVG-20010904/DTD/svg10.dtd">
<svg version="1.0" xmlns="http://www.w3.org/2000/svg"
 width="48.000000pt" height="48.000000pt" viewBox="0 0 48.000000 48.000000"
 preserveAspectRatio="xMidYMid meet">

<g transform="translate(0.000000,48.000000) scale(0.100000,-0.100000)"
fill="#000000" stroke="none">
<path d="M137 373 l-117 -4 0 -99 c0 -98 0 -100 25 -106 14 -3 25 -12 25 -20
0 -7 9 -29 21 -48 15 -26 28 -36 45 -36 32 0 54 42 36 71 -8 12 -8 19 -2 19
14 0 195 -19 238 -24 28 -4 32 -2 32 20 0 13 5 24 10 24 6 0 10 42 10 105 l0
105 -102 -2 c-57 -1 -156 -4 -221 -5z m258 -49 c19 -13 25 -25 25 -55 0 -21
-6 -41 -12 -46 -21 -12 -327 -13 -334 -1 -4 6 -8 26 -9 44 -3 55 14 63 155 67
69 1 131 4 138 5 7 1 24 -5 37 -14z m-251 -169 c6 -17 -21 -48 -37 -42 -6 2
-15 11 -21 21 -9 13 -7 20 7 31 21 15 43 11 51 -10z m16 -66 c-6 -10 -14 -19
-18 -19 -11 0 -37 18 -32 22 46 30 66 29 50 -3z"/>
<path d="M202 308 c-15 -15 -15 -51 0 -66 15 -15 51 -15 66 0 28 28 7 78 -33
78 -12 0 -26 -5 -33 -12z"/>
<path d="M104 285 c-4 -9 -2 -21 4 -27 15 -15 44 -1 40 19 -4 23 -36 29 -44 8z"/>
<path d="M324 285 c-4 -9 -2 -21 4 -27 15 -15 44 -1 40 19 -4 23 -36 29 -44 8z"/>
</g>
</svg>
